<?xml version="1.0" encoding="utf-8"?>
<!-- Generator: Adobe Illustrator 21.0.2, SVG Export Plug-In . SVG Version: 6.00 Build 0)  -->
<svg version="1.0" xmlns="http://www.w3.org/2000/svg" xmlns:xlink="http://www.w3.org/1999/xlink" x="0px" y="0px"
	 viewBox="0 0 1384 956" enable-background="new 0 0 1384 956" xml:space="preserve">
<g id="Layer_1">
</g>
<g id="Layer_2">
	<path fill="none" stroke="#000000" stroke-miterlimit="10" d="M999.7,73.4c0,0,243.1-91.1,330-36c106.5,67.5,10.5,264-207,243
		c-219.5-21.2-379.5-178.5-558.8-92.1c-158.4,76.3-228.7,347.1-435.7,288.6c-221.4-62.6-94.5-367.4,90-298.5
		c261,97.5,504.6,611.7,783,523.5c213-67.5,152.7-288.5-33-298.5c-139.5-7.5-348,58.5-448.5,303c-87.8,213.5,88.4,256.2,172.3,213
		c90.2-46.5,230.9-174.3,322.7-126c85.5,45,6,134.2,6,134.2"/>
</g>
</svg>
